<?xml version="1.0" encoding="UTF-8" standalone="no"?>
<svg width="498px" height="61px" viewBox="0 0 498 61" version="1.1" xmlns="http://www.w3.org/2000/svg" xmlns:xlink="http://www.w3.org/1999/xlink" xmlns:sketch="http://www.bohemiancoding.com/sketch/ns">
    <!-- Generator: Sketch 3.3.3 (12072) - http://www.bohemiancoding.com/sketch -->
    <title>redseekerslogo</title>
    <desc>Created with Sketch.</desc>
    <defs></defs>
    <g id="Page-1" stroke="none" stroke-width="1" fill="none" fill-rule="evenodd" sketch:type="MSPage">
        <g id="redseekerslogo" sketch:type="MSArtboardGroup">
            <g id="Group" sketch:type="MSLayerGroup">
                <path d="M156.589474,17.0614035 C156.589474,12.4947368 158.249123,8.61052632 161.57193,5.40701754 C164.896491,2.20350877 170.036842,0.605263158 176.996491,0.605263158 L192.042105,0.605263158 L192.042105,8.21403509 L177.975439,8.21403509 C169.159649,8.21403509 164.750877,11.1614035 164.750877,17.0614035 C164.750877,18.6421053 165.526316,20.022807 167.075439,21.2017544 C168.62807,22.3824561 170.538596,23.322807 172.815789,24.0315789 C175.089474,24.7350877 177.582456,25.6508772 180.291228,26.7701754 C183.001754,27.8929825 185.498246,29.0877193 187.778947,30.3508772 C190.063158,31.6157895 191.97193,33.4754386 193.514035,35.9210526 C195.054386,38.3666667 195.824561,41.2105263 195.824561,44.4614035 C195.824561,49.4491228 193.95614,53.3473684 190.219298,56.1508772 C186.484211,58.954386 181.322807,60.3596491 174.735088,60.3596491 L157.361404,60.3596491 L157.361404,52.7333333 C157.361404,52.7333333 168.331579,52.7473684 174.008772,52.7473684 C183.082456,52.7473684 187.633333,49.9859649 187.659649,44.4614035 C187.659649,42.1052632 186.892982,40.0912281 185.35614,38.4210526 C183.821053,36.754386 181.915789,35.545614 179.640351,34.7982456 L172.133333,32.2491228 C169.401754,31.3017544 166.9,30.3315789 164.62807,29.3350877 C162.354386,28.3438596 160.445614,26.8017544 158.903509,24.7 C157.359649,22.6 156.589474,20.0508772 156.589474,17.0614035" id="Fill-1" fill="#FFFFFF" sketch:type="MSShapeGroup"></path>
                <path d="M458.663158,17.0614035 C458.663158,12.4947368 460.322807,8.61052632 463.647368,5.40701754 C466.970175,2.20350877 472.110526,0.605263158 479.070175,0.605263158 L494.117544,0.605263158 L494.117544,8.21403509 L480.050877,8.21403509 C471.233333,8.21403509 466.824561,11.1614035 466.824561,17.0614035 C466.824561,18.6421053 467.6,20.022807 469.150877,21.2017544 C470.701754,22.3824561 472.612281,23.322807 474.889474,24.0315789 C477.164912,24.7350877 479.65614,25.6508772 482.366667,26.7701754 C485.077193,27.8929825 487.57193,29.0877193 489.852632,30.3508772 C492.136842,31.6157895 494.047368,33.4754386 495.587719,35.9210526 C497.12807,38.3666667 497.898246,41.2105263 497.898246,44.4614035 C497.898246,49.4491228 496.029825,53.3473684 492.292982,56.1508772 C488.557895,58.954386 483.396491,60.3596491 476.808772,60.3596491 L459.436842,60.3596491 L459.436842,52.7333333 C459.436842,52.7333333 470.405263,52.7473684 476.082456,52.7473684 C485.15614,52.7473684 489.707018,49.9859649 489.735088,44.4614035 C489.735088,42.1052632 488.966667,40.0912281 487.429825,38.4210526 C485.894737,36.754386 483.989474,35.545614 481.715789,34.7982456 L474.207018,32.2491228 C471.477193,31.3017544 468.973684,30.3315789 466.701754,29.3350877 C464.42807,28.3438596 462.521053,26.8017544 460.977193,24.7 C459.435088,22.6 458.663158,20.0508772 458.663158,17.0614035" id="Fill-2" fill="#FFFFFF" sketch:type="MSShapeGroup"></path>
                <path d="M62.3964912,34.2842105 L88.722807,34.2842105 L88.722807,26.677193 L54.2333333,26.677193 L54.2333333,59.6736842 L92.3140351,59.6736842 L92.3140351,52.0666667 L62.3964912,52.0666667 L62.3964912,34.2842105" id="Fill-3" fill="#C20731" sketch:type="MSShapeGroup"></path>
                <path d="M54.2333333,1.2877193 L92.3140351,1.2877193 L92.3140351,8.89824561 L54.2333333,8.89824561 L54.2333333,1.2877193 Z" id="Fill-4" fill="#C20731" sketch:type="MSShapeGroup"></path>
                <path d="M214.34386,34.2842105 L240.67193,34.2842105 L240.67193,26.677193 L206.180702,26.677193 L206.180702,59.6736842 L244.261404,59.6736842 L244.261404,52.0666667 L214.34386,52.0666667 L214.34386,34.2842105" id="Fill-5" fill="#FFFFFF" sketch:type="MSShapeGroup"></path>
                <path d="M206.180702,1.2877193 L244.261404,1.2877193 L244.261404,8.89824561 L206.180702,8.89824561 L206.180702,1.2877193 Z" id="Fill-6" fill="#FFFFFF" sketch:type="MSShapeGroup"></path>
                <path d="M262.496491,34.2842105 L288.824561,34.2842105 L288.824561,26.677193 L254.331579,26.677193 L254.331579,59.6736842 L292.414035,59.6736842 L292.414035,52.0666667 L262.496491,52.0666667 L262.496491,34.2842105" id="Fill-7" fill="#FFFFFF" sketch:type="MSShapeGroup"></path>
                <path d="M254.331579,1.2877193 L292.414035,1.2877193 L292.414035,8.89824561 L254.331579,8.89824561 L254.331579,1.2877193 Z" id="Fill-8" fill="#FFFFFF" sketch:type="MSShapeGroup"></path>
                <path d="M367.159649,34.2842105 L393.487719,34.2842105 L393.487719,26.677193 L358.996491,26.677193 L358.996491,59.6736842 L397.078947,59.6736842 L397.078947,52.0666667 L367.159649,52.0666667 L367.159649,34.2842105" id="Fill-9" fill="#FFFFFF" sketch:type="MSShapeGroup"></path>
                <path d="M358.996491,1.2877193 L397.078947,1.2877193 L397.078947,8.89824561 L358.996491,8.89824561 L358.996491,1.2877193 Z" id="Fill-10" fill="#FFFFFF" sketch:type="MSShapeGroup"></path>
                <path d="M302.482456,1.2877193 L310.647368,1.2877193 L310.647368,8.89824561 L302.482456,8.89824561 L302.482456,1.2877193 Z" id="Fill-11" fill="#C20731" sketch:type="MSShapeGroup"></path>
                <path d="M141.414035,8.72631579 C136.77193,3.76842105 129.968421,1.2877193 121.001754,1.2877193 L102.384211,1.2877193 L102.384211,8.47192982 L119.736842,8.47192982 C126.861404,8.47192982 132.082456,10.2350877 135.401754,13.7684211 C138.721053,17.3017544 140.380702,22.8894737 140.380702,30.5245614 C140.380702,38.1035088 138.721053,43.6631579 135.401754,47.1929825 C132.082456,50.7263158 126.861404,52.4929825 119.736842,52.4929825 L110.547368,52.4929825 L110.547368,26.677193 L102.384211,26.677193 L102.384211,59.6736842 L121.001754,59.6736842 C129.998246,59.6736842 136.808772,57.2105263 141.433333,52.2789474 C146.059649,47.3473684 148.373684,40.0982456 148.373684,30.5245614 C148.373684,20.9491228 146.054386,13.6859649 141.414035,8.72631579" id="Fill-12" fill="#C20731" sketch:type="MSShapeGroup"></path>
                <path d="M30.0824561,36.1368421 C33.8157895,35.0877193 36.9298246,33.1526316 39.422807,30.3350877 C41.9175439,27.5175439 43.1631579,23.7210526 43.1631579,18.9421053 C43.1631579,13.2859649 41.2877193,8.92631579 37.5421053,5.87192982 C33.7964912,2.81754386 28.6596491,1.2877193 22.1350877,1.2877193 L0.592982456,1.2877193 L0.592982456,8.47192982 L21.4508772,8.47192982 C30.4824561,8.47192982 35,12.0473684 35,19.1964912 C35,22.3438596 34.0666667,24.9070175 32.2,26.8807018 C30.3333333,28.854386 26.8631579,29.8385965 21.7912281,29.8385965 L0.592982456,29.8385965 L0.592982456,59.6736842 L8.75614035,59.6736842 L8.75614035,37.4491228 L21.8789474,37.4491228 L35.9824561,59.6736842 L45.5982456,59.6736842 L30.0824561,36.1368421" id="Fill-13" fill="#C20731" sketch:type="MSShapeGroup"></path>
                <path d="M436.638596,36.1368421 C440.37193,35.0877193 443.485965,33.1526316 445.978947,30.3350877 C448.47193,27.5175439 449.719298,23.7210526 449.719298,18.9421053 C449.719298,13.2859649 447.84386,8.92631579 444.098246,5.87192982 C440.350877,2.81754386 435.214035,1.2877193 428.689474,1.2877193 L407.147368,1.2877193 L407.147368,8.47192982 L428.007018,8.47192982 C437.038596,8.47192982 441.55614,12.0473684 441.55614,19.1964912 C441.55614,22.3438596 440.621053,24.9070175 438.754386,26.8807018 C436.889474,28.854386 433.419298,29.8385965 428.347368,29.8385965 L407.147368,29.8385965 L407.147368,59.6736842 L415.312281,59.6736842 L415.312281,37.4491228 L428.433333,37.4491228 L442.538596,59.6736842 L452.154386,59.6736842 L436.638596,36.1368421" id="Fill-14" fill="#FFFFFF" sketch:type="MSShapeGroup"></path>
                <path d="M347.661404,1.2877193 L337.403509,1.2877193 L302.482456,38.1631579 L302.482456,59.6736842 L310.645614,59.6736842 L310.645614,40.7842105 L317.52807,33.4298246 L339.796491,59.6736842 L349.840351,59.6736842 L322.870175,27.7035088 L347.661404,1.2877193" id="Fill-15" fill="#FFFFFF" sketch:type="MSShapeGroup"></path>
            </g>
        </g>
    </g>
</svg>